<svg width="64" height="64" viewBox="0 0 64 64" fill="none" xmlns="http://www.w3.org/2000/svg">
<rect x="7.4126" y="7.5658" width="47.3864" height="47.0288" fill="white"/>
<rect x="7.4126" y="7.5658" width="47.3864" height="47.0288" fill="white"/>
<path d="M64 0.000244141L57.9991 57.7776L31.9996 64.0002L5.99967 57.7776L0 0.000244141H64ZM51.9078 11.7484H31.9762H11.6915L12.6616 18.7255H31.9762H33.0611L31.9762 19.1269L13.3675 26.0162L13.9846 32.8361L31.9762 32.888L41.6191 32.9152L41.0018 42.0087L31.976 44.2675V44.2604L31.9021 44.2786L23.1854 42.3227L22.6565 36.6779H22.6276H14.5425H14.514L15.5723 47.5751L31.9763 51.8872V51.8794L32.0059 51.8872L48.322 47.6536L50.4385 26.0162H31.9763H31.9308L31.9763 25.9986L51.1148 18.7255L51.9078 11.7484Z" fill="#33AADD"/>
<path d="M64 0.000244141L57.9991 57.7776L31.9996 64.0002L5.99967 57.7776L0 0.000244141H64ZM51.9078 11.7484H31.9762H11.6915L12.6616 18.7255H31.9762H33.0611L31.9762 19.1269L13.3675 26.0162L13.9846 32.8361L31.9762 32.888L41.6191 32.9152L41.0018 42.0087L31.976 44.2675V44.2604L31.9021 44.2786L23.1854 42.3227L22.6565 36.6779H22.6276H14.5425H14.514L15.5723 47.5751L31.9763 51.8872V51.8794L32.0059 51.8872L48.322 47.6536L50.4385 26.0162H31.9763H31.9308L31.9763 25.9986L51.1148 18.7255L51.9078 11.7484Z" fill="#33AADD"/>
</svg>
