<svg width="65" height="68" viewBox="0 0 65 68" fill="none" xmlns="http://www.w3.org/2000/svg">
<path d="M32.6501 31.7C34.0501 33 34.7501 34.75 34.7501 37C34.7501 39.25 34.0501 41.05 32.7001 42.4C31.3501 43.7 29.2501 44.4 26.5001 44.4H21.6001V29.85H26.6501C29.2501 29.85 31.2501 30.45 32.6501 31.7ZM30.2501 40.35C31.0501 39.6 31.4501 38.5 31.4501 37.05C31.4501 35.6 31.0501 34.5 30.2501 33.7C29.4501 32.95 28.2001 32.5 26.5501 32.5H24.6501V41.5H26.7501C28.3001 41.5 29.4501 41.1 30.2501 40.35ZM46.3001 44.4H43.4001V43C42.5501 44 41.6001 44.5 40.4001 44.5C39.2001 44.5 38.2001 44.15 37.4001 43.45C36.6001 42.75 36.2001 41.85 36.2001 40.7C36.2001 39.55 36.6001 38.7 37.4501 38.15C38.3001 37.6 39.4501 37.3 40.9001 37.3H43.2001V37.2C43.2001 36 42.6001 35.4 41.3001 35.4C40.7501 35.4 40.2001 35.5 39.6001 35.7C39.0001 35.9 38.5001 36.2 38.0501 36.5L36.6501 34.45C38.1501 33.35 39.8001 32.85 41.7001 32.85C43.0501 32.85 44.1501 33.2 45.0001 33.9C45.8501 34.6 46.2501 35.65 46.2501 37.15V44.4H46.3001ZM43.1501 40.1V39.65H41.2001C39.9501 39.65 39.3001 40 39.3001 40.75C39.3001 41.15 39.4501 41.45 39.7501 41.65C40.0501 41.85 40.4501 41.95 41.0501 41.95C41.6001 41.95 42.1001 41.8 42.5001 41.45C42.9501 41.1 43.1501 40.65 43.1501 40.1ZM54.5501 35.9C53.6001 35.9 52.8501 36.2 52.4001 36.9C51.9501 37.55 51.6501 38.45 51.6501 39.55V44.45H48.5501V33.2H51.6501V34.65C52.0501 34.2 52.6501 33.8 53.2501 33.5C53.8501 33.2 54.5501 33 55.2001 33V35.95L54.5501 35.9ZM60.2001 35.45V40.4C60.2001 40.85 60.3001 41.15 60.5501 41.4C60.7501 41.65 61.0501 41.75 61.3501 41.75C61.9501 41.75 62.4501 41.5 62.8501 40.95L64.0001 43.15C63.0501 44.05 62.0001 44.5 60.9501 44.5C59.8501 44.5 58.9501 44.15 58.2001 43.45C57.4501 42.75 57.1001 41.75 57.1001 40.55V29.85H60.2001V33H63.5001L61.8001 35.5L60.2001 35.45Z" fill="#231F20"/>
<path d="M4.65005 32.1498L3.55005 31.0498V39.2498C3.55005 39.3998 3.60005 39.5998 3.65005 39.7998L12.3 42.8498L14.45 41.8998L4.65005 32.1498Z" fill="#00C4B3"/>
<path d="M14.4499 41.95L12.2999 42.9L3.6499 39.85C3.7999 40.5 4.1499 41.2 4.5499 41.6L7.3499 44.4H13.5999L14.4499 41.95Z" fill="#22D3C5"/>
<path d="M0.250072 36.0998C-0.0499281 36.3998 0.100072 36.9998 0.550072 37.4998L2.50007 39.4498L3.70007 39.8998C3.65007 39.6998 3.60007 39.4998 3.60007 39.3498V38.9998L3.55007 31.0498" fill="#0075C9"/>
<path d="M14.45 41.9498L15.4 39.7998L12.35 31.1498C12.1501 31.0998 11.95 31.0498 11.8 31.0498H3.55005" fill="#0075C9"/>
<path d="M14.4501 41.95L16.8001 41.2V34.75L14.1001 32.05C13.7001 31.65 13.0001 31.3 12.3501 31.15L15.4001 39.8" fill="#00A8E1"/>
<path d="M11.95 29.95L9.95005 28C9.50005 27.55 8.90005 27.4 8.60005 27.7L3.55005 31.05H11.8C11.95 31.05 12.15 31.1 12.35 31.15L11.95 29.95Z" fill="#00C4B3"/>
<g clip-path="url(#clip0_22_2466)">
<path d="M12.3333 5.1585e-06H53.6667C55.1554 -0.00143394 56.6297 0.298246 58.0054 0.881893C59.3811 1.46554 60.631 2.3217 61.6837 3.40137C62.7363 4.48103 63.5711 5.76302 64.1402 7.17395C64.7092 8.58488 65.0014 10.0971 65 11.6239V52.3761C65.0014 53.9029 64.7092 55.4151 64.1402 56.826C63.5711 58.237 62.7363 59.519 61.6837 60.5986C60.631 61.6783 59.3811 62.5345 58.0054 63.1181C56.6297 63.7018 55.1554 64.0014 53.6667 64H12.3333C10.8446 64.0014 9.37026 63.7018 7.9946 63.1181C6.61894 62.5345 5.36901 61.6783 4.31633 60.5986C3.26366 59.519 2.4289 58.237 1.85985 56.826C1.29079 55.4151 0.998602 53.9029 1.00001 52.3761V11.6239C0.998602 10.0971 1.29079 8.58488 1.85985 7.17395C2.4289 5.76302 3.26366 4.48103 4.31633 3.40137C5.36901 2.3217 6.61894 1.46554 7.9946 0.881893C9.37026 0.298246 10.8446 -0.00143394 12.3333 5.1585e-06Z" fill="#000B1D"/>
<path d="M32.9099 10.5601C21.8165 10.5601 22.5093 15.3708 22.5093 15.3708L22.5217 20.3547H33.1078V21.8511H18.3169C18.3169 21.8511 11.2183 21.046 11.2183 32.2393C11.2183 43.4326 17.4141 43.0357 17.4141 43.0357H21.1118V37.8415C21.1118 37.8415 20.9125 31.6457 27.2087 31.6457C33.5049 31.6457 37.7083 31.6457 37.7083 31.6457C37.7083 31.6457 43.6073 31.7411 43.6073 25.9445C43.6073 20.148 43.6073 16.3602 43.6073 16.3602C43.6073 16.3602 44.5029 10.5601 32.9099 10.5601ZM27.0727 13.9115C28.1259 13.9115 28.9772 14.7628 28.9772 15.816C28.9772 16.8693 28.1259 17.7205 27.0727 17.7205C26.0195 17.7205 25.1682 16.8693 25.1682 15.816C25.1682 14.7628 26.0195 13.9115 27.0727 13.9115Z" fill="url(#paint0_linear_22_2466)"/>
<path d="M33.2249 54.0308C44.3183 54.0308 43.6255 49.2201 43.6255 49.2201L43.6132 44.2362H33.0271V42.7398H47.8179C47.8179 42.7398 54.9166 43.5448 54.9166 32.3516C54.9166 21.1583 48.7207 21.5552 48.7207 21.5552H45.023V26.7493C45.023 26.7493 45.2223 32.9452 38.9261 32.9452C32.6299 32.9452 28.4266 32.9452 28.4266 32.9452C28.4266 32.9452 22.5275 32.8498 22.5275 38.6463C22.5275 44.4429 22.5275 48.2307 22.5275 48.2307C22.5275 48.2307 21.6319 54.0308 33.2249 54.0308ZM39.0621 50.6794C38.0089 50.6794 37.1576 49.8281 37.1576 48.7749C37.1576 47.7216 38.0089 46.8704 39.0621 46.8704C40.1154 46.8704 40.9666 47.7216 40.9666 48.7749C40.9666 49.8281 40.1154 50.6794 39.0621 50.6794Z" fill="url(#paint1_linear_22_2466)"/>
</g>
<defs>
<linearGradient id="paint0_linear_22_2466" x1="15.4178" y1="14.3598" x2="37.0253" y2="36.0396" gradientUnits="userSpaceOnUse">
<stop stop-color="#387EB8"/>
<stop offset="1" stop-color="#366994"/>
</linearGradient>
<linearGradient id="paint1_linear_22_2466" x1="28.7098" y1="28.1515" x2="51.9163" y2="50.3846" gradientUnits="userSpaceOnUse">
<stop stop-color="#FFE052"/>
<stop offset="1" stop-color="#FFC331"/>
</linearGradient>
<clipPath id="clip0_22_2466">
<rect width="64" height="64" fill="white" transform="translate(1)"/>
</clipPath>
</defs>
</svg>
