<svg width="51" height="49" viewBox="0 0 51 49" fill="none" xmlns="http://www.w3.org/2000/svg">
<g clip-path="url(#clip0_22_3779)">
<path d="M9.03122 -2.65681e-05H41.9687C43.155 -0.00112838 44.3299 0.228314 45.4262 0.675169C46.5224 1.12202 47.5184 1.77752 48.3573 2.60414C49.1961 3.43076 49.8613 4.41228 50.3148 5.49252C50.7683 6.57277 51.0011 7.73053 51 8.89955V40.1004C51.0011 41.2694 50.7683 42.4272 50.3148 43.5074C49.8613 44.5877 49.1961 45.5692 48.3573 46.3958C47.5184 47.2224 46.5224 47.8779 45.4262 48.3248C44.3299 48.7716 43.155 49.0011 41.9687 49H9.03122C7.84491 49.0011 6.67002 48.7716 5.57379 48.3248C4.47756 47.8779 3.48152 47.2224 2.64267 46.3958C1.80382 45.5692 1.13863 44.5877 0.685159 43.5074C0.231692 42.4272 -0.00114462 41.2694 -2.65097e-05 40.1004V8.89955C-0.00114462 7.73053 0.231692 6.57277 0.685159 5.49252C1.13863 4.41228 1.80382 3.43076 2.64267 2.60414C3.48152 1.77752 4.47756 1.12202 5.57379 0.675169C6.67002 0.228314 7.84491 -0.00112838 9.03122 -2.65681e-05Z" fill="#000B1D"/>
<path d="M20.1875 40.2051C23.1215 40.2051 25.5 37.8613 25.5 34.9701V29.735H20.1875C17.2535 29.735 14.875 32.0789 14.875 34.9701C14.875 37.8613 17.2535 40.2051 20.1875 40.2051Z" fill="#0ACF83"/>
<path d="M14.875 24.5C14.875 21.6088 17.2535 19.265 20.1875 19.265H25.5V29.735H20.1875C17.2535 29.735 14.875 27.3912 14.875 24.5Z" fill="#A259FF"/>
<path d="M14.875 14.0299C14.875 11.1387 17.2535 8.79486 20.1875 8.79486H25.5V19.2649H20.1875C17.2535 19.2649 14.875 16.9211 14.875 14.0299Z" fill="#F24E1E"/>
<path d="M25.5 8.79486H30.8125C33.7465 8.79486 36.125 11.1387 36.125 14.0299C36.125 16.9211 33.7465 19.2649 30.8125 19.2649H25.5V8.79486Z" fill="#FF7262"/>
<path d="M36.125 24.5C36.125 27.3912 33.7465 29.735 30.8125 29.735C27.8785 29.735 25.5 27.3912 25.5 24.5C25.5 21.6088 27.8785 19.265 30.8125 19.265C33.7465 19.265 36.125 21.6088 36.125 24.5Z" fill="#1ABCFE"/>
</g>
<defs>
<clipPath id="clip0_22_3779">
<rect width="51" height="49" fill="white"/>
</clipPath>
</defs>
</svg>
