<svg width="59" height="64" viewBox="0 0 59 64" fill="none" xmlns="http://www.w3.org/2000/svg">
<path d="M58.997 18.8159C58.9965 17.7398 58.7581 16.7889 58.2758 15.973C57.8021 15.1702 57.0928 14.4976 56.1412 13.9658C48.2867 9.59466 40.4245 5.2369 32.5726 0.861323C30.4557 -0.318183 28.4033 -0.27496 26.3021 0.921479C23.1758 2.70076 7.52326 11.3559 2.85902 13.9633C0.938157 15.0368 0.00346269 16.6793 0.00300099 18.8139C0 27.6045 0.00300099 36.3951 0 45.1857C0 46.2382 0.228768 47.1709 0.689767 47.9745C1.16369 48.8013 1.88301 49.4925 2.85648 50.0363C7.52095 52.6437 23.1755 61.2982 26.3012 63.0782C28.4033 64.2753 30.4557 64.318 32.5732 63.1383C40.4255 58.7625 48.2881 54.4048 56.1437 50.0336C57.1172 49.49 57.8365 48.7984 58.3105 47.9723C58.7708 47.1684 59 46.236 59 45.1833C59 45.1833 59 27.6068 58.997 18.8159Z" fill="#A179DC"/>
<path d="M29.5904 31.9144L0.689941 47.9748C1.16387 48.8016 1.88318 49.4927 2.85666 50.0366C7.52113 52.644 23.1757 61.2985 26.3013 63.0784C28.4034 64.2755 30.4559 64.3183 32.5734 63.1386C40.4256 58.7628 48.2882 54.405 56.1439 50.0339C57.1174 49.4903 57.8367 48.7987 58.3106 47.9726L29.5904 31.9144Z" fill="#A179DC"/>
<path d="M58.9968 18.8161C58.9964 17.74 58.7579 16.789 58.2757 15.9731L29.5901 31.9145L58.3103 47.9724C58.7706 47.1686 58.9994 46.2361 58.9998 45.1834C58.9998 45.1834 58.9998 27.6069 58.9968 18.8161Z" fill="#A179DC"/>
<path d="M46.6058 25.9104V28.9124H49.7162V25.9104H51.2714V28.9124H54.3819V30.4134H51.2714V33.4152H54.3819V34.9162H51.2714V37.9182H49.7162V34.9162H46.6058V37.9182H45.0506V34.9162H41.9404V33.4152H45.0506V30.4134H41.9404V28.9124H45.0506V25.9104H46.6058ZM49.7162 30.4132H46.6058V33.4152H49.7162V30.4132Z" fill="white"/>
<path d="M29.6535 10.8337C37.7663 10.8337 44.8493 15.0861 48.6433 21.4069L48.6064 21.3461L39.0609 26.6506C37.1804 23.5775 33.733 21.5034 29.7779 21.4606L29.6532 21.46C23.6224 21.46 18.7331 26.1789 18.7331 31.9996C18.7311 33.8342 19.2277 35.6372 20.1733 37.2287C22.0556 40.4002 25.5943 42.5394 29.6535 42.5394C33.7378 42.5394 37.2965 40.3731 39.1692 37.1676L39.1237 37.2445L48.6546 42.5734C44.9022 48.8408 37.9161 53.0801 29.8977 53.1645L29.6535 53.1658C21.515 53.1658 14.4119 48.8872 10.6274 42.5329C8.77994 39.4308 7.7229 35.8346 7.7229 31.9996C7.7229 20.3101 17.5412 10.8335 29.6532 10.8335L29.6535 10.8337Z" fill="white"/>
</svg>
