<svg width="64" height="64" viewBox="0 0 64 64" fill="none" xmlns="http://www.w3.org/2000/svg">
<rect x="8.65625" y="7.56549" width="46.8016" height="47.0288" fill="white"/>
<path fill-rule="evenodd" clip-rule="evenodd" d="M51.3248 19.2H51.2994H20.6648L21.3974 25.6H50.5958C50.1679 31.2064 48.8731 43.0843 48.398 48.4891L31.9982 52.6437V52.6562L31.9619 52.6719L15.5512 47.475L14.4269 35.2H22.4709L23.0403 41.8016L31.9764 44.8H31.9982L40.9198 41.9203L41.8374 32H14.0679C13.9337 30.7168 12.2074 14.0544 11.9064 12.8H52.0428C51.818 14.912 51.5895 17.0816 51.3248 19.2ZM0 0L5.82445 58.0734L31.9619 64L58.1683 57.9547L64 0H0Z" fill="#F16529"/>
</svg>
