<svg width="64" height="64" viewBox="0 0 64 64" fill="none" xmlns="http://www.w3.org/2000/svg">
<g clip-path="url(#clip0_22_2606)">
<path d="M11.3333 5.1585e-06H52.6667C54.1554 -0.00143394 55.6297 0.298246 57.0054 0.881893C58.3811 1.46554 59.631 2.3217 60.6837 3.40137C61.7363 4.48103 62.5711 5.76302 63.1402 7.17395C63.7092 8.58488 64.0014 10.0971 64 11.6239V52.3761C64.0014 53.9029 63.7092 55.4151 63.1402 56.826C62.5711 58.237 61.7363 59.519 60.6837 60.5986C59.631 61.6783 58.3811 62.5345 57.0054 63.1181C55.6297 63.7018 54.1554 64.0014 52.6667 64H11.3333C9.84463 64.0014 8.37026 63.7018 6.9946 63.1181C5.61894 62.5345 4.36901 61.6783 3.31633 60.5986C2.26366 59.519 1.4289 58.237 0.859846 56.826C0.29079 55.4151 -0.00139809 53.9029 5.02954e-06 52.3761V11.6239C-0.00139809 10.0971 0.29079 8.58488 0.859846 7.17395C1.4289 5.76302 2.26366 4.48103 3.31633 3.40137C4.36901 2.3217 5.61894 1.46554 6.9946 0.881893C8.37026 0.298246 9.84463 -0.00143394 11.3333 5.1585e-06Z" fill="#F0F0F0"/>
<path d="M44.5991 47.0633H44.406V46.9553H44.9258V47.0633H44.7341V47.6023H44.5991V47.0633ZM45.6359 47.0915H45.6329L45.4416 47.6024H45.354L45.164 47.0915H45.1616V47.6024H45.0344V46.9554H45.2216L45.3978 47.4136L45.5735 46.9554H45.76V47.6024H45.6358V47.0915H45.6359Z" fill="#E76F00"/>
<path d="M27.3132 33.8334C27.3132 33.8334 25.9698 34.6146 28.2693 34.879C31.0552 35.1968 32.479 35.1512 35.549 34.5702C35.549 34.5702 36.3561 35.0763 37.4833 35.5146C30.6012 38.4642 21.9077 35.3438 27.3132 33.8334Z" fill="#5382A1"/>
<path d="M26.4724 29.9844C26.4724 29.9844 24.9656 31.0998 27.2669 31.3378C30.2428 31.6448 32.5929 31.6699 36.6596 30.8868C36.6596 30.8868 37.2221 31.4571 38.1065 31.7689C29.7856 34.2021 20.5176 31.9608 26.4724 29.9844Z" fill="#5382A1"/>
<path d="M33.562 23.4552C35.2577 25.4076 33.1164 27.1645 33.1164 27.1645C33.1164 27.1645 37.4222 24.9417 35.4448 22.1582C33.5979 19.5625 32.1816 18.2727 39.8489 13.8259C39.8489 13.8259 27.8137 16.8318 33.562 23.4552Z" fill="#E76F00"/>
<path d="M42.6641 36.6804C42.6641 36.6804 43.6583 37.4996 41.5692 38.1333C37.5968 39.3367 25.0354 39.7001 21.5459 38.1812C20.2915 37.6355 22.6439 36.8783 23.3838 36.7193C24.1555 36.552 24.5965 36.5832 24.5965 36.5832C23.2015 35.6005 15.5798 38.5128 20.725 39.3468C34.7569 41.6224 46.3038 38.3221 42.6641 36.6804Z" fill="#5382A1"/>
<path d="M27.9593 25.9964C27.9593 25.9964 21.5698 27.5141 25.6966 28.0652C27.4391 28.2985 30.9127 28.2457 34.1482 27.9746C36.7925 27.7515 39.4477 27.2773 39.4477 27.2773C39.4477 27.2773 38.5153 27.6766 37.8407 28.1372C31.3523 29.8436 18.8178 29.0498 22.4263 27.3043C25.478 25.8291 27.9593 25.9964 27.9593 25.9964Z" fill="#5382A1"/>
<path d="M39.4214 32.4032C46.0172 28.9758 42.9675 25.6821 40.8389 26.1258C40.3172 26.2344 40.0846 26.3285 40.0846 26.3285C40.0846 26.3285 40.2783 26.0251 40.6482 25.8938C44.8593 24.4133 48.0978 30.2602 39.2888 32.576C39.2888 32.5761 39.3909 32.4848 39.4214 32.4032Z" fill="#5382A1"/>
<path d="M35.4447 6.64551C35.4447 6.64551 39.0976 10.2996 31.9801 15.9185C26.2727 20.4259 30.6787 22.9959 31.9778 25.9322C28.6462 22.9263 26.2013 20.2803 27.8416 17.8175C30.249 14.2025 36.9185 12.4498 35.4447 6.64551Z" fill="#E76F00"/>
<path d="M28.6075 41.6908C34.9386 42.0961 44.6608 41.4659 44.891 38.4702C44.891 38.4702 44.4484 39.6059 39.6587 40.5078C34.2549 41.5247 27.5902 41.406 23.6372 40.7542C23.6373 40.7541 24.4464 41.424 28.6075 41.6908Z" fill="#5382A1"/>
<path d="M27.5699 53.1375C26.9726 53.6555 26.3418 53.9463 25.7757 53.9463C24.9678 53.9463 24.5312 53.4618 24.5312 52.6847C24.5312 51.8442 24.9989 51.2296 26.8754 51.2296H27.5698V53.1375H27.5699ZM29.2179 54.9969V49.2412C29.2179 47.7709 28.3793 46.8007 26.3574 46.8007C25.177 46.8007 24.143 47.0921 23.3026 47.4639L23.5452 48.4827C24.2069 48.2398 25.0634 48.0137 25.904 48.0137C27.0688 48.0137 27.5699 48.4827 27.5699 49.4522V50.1797H26.9885C24.1586 50.1797 22.8821 51.2782 22.8821 52.927C22.8821 54.35 23.7233 55.1588 25.3073 55.1588C26.3254 55.1588 27.0855 54.7385 27.7959 54.1233L27.9249 54.997H29.2179V54.9969Z" fill="#E76F00"/>
<path d="M34.7179 54.9969H32.6624L30.1887 46.9464H31.9837L33.5186 51.8927L33.8599 53.3803C34.6364 51.2295 35.1856 49.0474 35.4603 46.9464H37.2064C36.7386 49.5974 35.8967 52.5072 34.7179 54.9969Z" fill="#E76F00"/>
<path d="M42.6028 53.1375C42.0044 53.6555 41.3725 53.9463 40.8064 53.9463C39.9999 53.9463 39.5622 53.4618 39.5622 52.6847C39.5622 51.8442 40.0311 51.2296 41.9073 51.2296H42.6028V53.1375ZM44.2506 54.9969V49.2412C44.2506 47.7709 43.41 46.8007 41.3904 46.8007C40.2092 46.8007 39.1748 47.0921 38.3348 47.4639L38.577 48.4827C39.239 48.2398 40.0971 48.0137 40.9371 48.0137C42.101 48.0137 42.6028 48.4827 42.6028 49.4522V50.1797H42.0206C39.1898 50.1797 37.9138 51.2782 37.9138 52.927C37.9138 54.35 38.7544 55.1588 40.3381 55.1588C41.3568 55.1588 42.1165 54.7385 42.8283 54.1233L42.9577 54.997H44.2506V54.9969Z" fill="#E76F00"/>
<path d="M21.0752 56.3641C20.6054 57.05 19.8465 57.5927 19.0158 57.8997L18.2021 56.9422C18.8345 56.6177 19.3767 56.0937 19.6287 55.6056C19.8466 55.1716 19.9368 54.6121 19.9368 53.2743V44.0834H21.6878V53.1483C21.6877 54.9369 21.5447 55.6595 21.0752 56.3641Z" fill="#E76F00"/>
</g>
<defs>
<clipPath id="clip0_22_2606">
<rect width="64" height="64" fill="white"/>
</clipPath>
</defs>
</svg>
