<svg width="64" height="64" viewBox="0 0 64 64" fill="none" xmlns="http://www.w3.org/2000/svg">
<path d="M0 9C0 4.02944 4.02944 0 9 0H55C59.9706 0 64 4.02944 64 9V55C64 59.9706 59.9706 64 55 64H9C4.02944 64 0 59.9706 0 55V9Z" fill="#F7DF1E"/>
<path d="M16.8284 53.4827L21.7259 50.5187C22.6709 52.194 23.5304 53.6115 25.5921 53.6115C27.5684 53.6115 28.8146 52.8385 28.8146 49.8315V29.382H34.8289V49.9165C34.8289 56.1457 31.1774 58.9812 25.8499 58.9812C21.0386 58.9812 18.2459 56.4895 16.8281 53.4822M38.0956 52.8382L42.9926 50.003C44.2819 52.1082 45.9574 53.6547 48.9214 53.6547C51.4136 53.6547 53.0026 52.4087 53.0026 50.6902C53.0026 48.6282 51.3701 47.8977 48.6206 46.6952L47.1174 46.0502C42.7781 44.2035 39.8999 41.8835 39.8999 36.986C39.8999 32.475 43.3366 29.038 48.7069 29.038C52.5304 29.038 55.2799 30.37 57.2559 33.8497L52.5729 36.8572C51.5416 35.01 50.4251 34.2797 48.7066 34.2797C46.9451 34.2797 45.8281 35.3967 45.8281 36.8572C45.8281 38.6615 46.9451 39.3922 49.5226 40.5092L51.0261 41.1535C56.1386 43.3447 59.0169 45.5785 59.0169 50.6045C59.0169 56.018 54.7639 58.982 49.0501 58.982C43.4654 58.982 39.8566 56.3185 38.0954 52.8385" fill="black"/>
</svg>
