<svg width="64" height="64" viewBox="0 0 64 64" fill="none" xmlns="http://www.w3.org/2000/svg">
<path d="M0 21.3H11.1L0 32.25V21.3Z" fill="url(#paint0_linear_22_2639)"/>
<path d="M0 42.7001L21.4 21.3H10.8L0 31.9501V42.7001Z" fill="url(#paint1_linear_22_2639)"/>
<path d="M21.2 42.7L10.6 32.1L0 42.7H21.2Z" fill="url(#paint2_linear_22_2639)"/>
<path d="M25 37.7999V26.3999H27.55V31.2999L32.2 26.3999H35.1L30.45 31.2999L35.1 37.7999H32.2L28.8 33.0499L27.55 34.2999V37.7999H25Z" fill="black"/>
<path d="M38.7499 29.1C36.1999 29.1 34.1499 31.05 34.1499 33.45C34.1499 35.85 36.1999 37.8 38.7499 37.8C41.2999 37.8 43.3499 35.85 43.3499 33.45C43.3499 31.05 41.2999 29.1 38.7499 29.1ZM38.7499 35.9C37.3999 35.9 36.2999 34.8 36.2999 33.45C36.2999 32.1 37.3999 31 38.7499 31C40.0999 31 41.1999 32.1 41.1999 33.45C41.1999 34.8 40.0999 35.9 38.7499 35.9Z" fill="black"/>
<path d="M43.95 26.8999H46.5V29.1499H48.5V31.2499H46.5V35.3499C46.5 35.3499 47.25 36.3999 48.5 35.3499V37.5999C48.5 37.5999 46.5 38.5999 44.75 37.5999C44.75 37.5999 43.95 36.7999 43.95 35.8499V31.2499H42.95V29.0499L43.95 29.1V26.8999ZM49.25 25.95H51.7V37.7999H49.25V25.95ZM52.5999 25.95H55.0999V28.0499H52.5999V25.95ZM52.5999 29.1499H55.0999V37.7999H52.5999V29.1499ZM55.95 29.1499H58.5V30.4999C58.5 30.4999 60.85 26.9 63.7 30.4999L63.95 31.2499V37.7999H61.45V32.4999C61.45 32.4999 60.0499 29.8499 58.5 32.4999V37.7999H55.95V29.1499Z" fill="black"/>
<defs>
<linearGradient id="paint0_linear_22_2639" x1="-2.023" y1="29.563" x2="6.847" y2="19.8745" gradientUnits="userSpaceOnUse">
<stop stop-color="#1C93C1"/>
<stop offset="0.163" stop-color="#2391C0"/>
<stop offset="0.404" stop-color="#378BBE"/>
<stop offset="0.696" stop-color="#587EB9"/>
<stop offset="0.995" stop-color="#7F6CB1"/>
</linearGradient>
<linearGradient id="paint1_linear_22_2639" x1="0.542499" y1="37.2301" x2="15.4785" y2="21.6426" gradientUnits="userSpaceOnUse">
<stop stop-color="#C757A7"/>
<stop offset="0.046" stop-color="#CA5A9E"/>
<stop offset="0.241" stop-color="#D66779"/>
<stop offset="0.428" stop-color="#E17357"/>
<stop offset="0.6" stop-color="#E97C3A"/>
<stop offset="0.756" stop-color="#EF8324"/>
<stop offset="0.888" stop-color="#F28817"/>
<stop offset="0.982" stop-color="#F48912"/>
</linearGradient>
<linearGradient id="paint2_linear_22_2639" x1="7.19" y1="46.248" x2="15.7435" y2="37.3905" gradientUnits="userSpaceOnUse">
<stop stop-color="#1C93C1"/>
<stop offset="0.216" stop-color="#2D8EBF"/>
<stop offset="0.64" stop-color="#587EB9"/>
<stop offset="0.995" stop-color="#7F6CB1"/>
</linearGradient>
</defs>
</svg>
