<svg width="54" height="54" viewBox="0 0 54 54" fill="none" xmlns="http://www.w3.org/2000/svg">
<rect width="54" height="54" rx="5" fill="white"/>
<path d="M49.95 0H4.05C2.97587 0 1.94574 0.426695 1.18622 1.18622C0.426695 1.94574 0 2.97587 0 4.05V49.95C0 51.0241 0.426695 52.0543 1.18622 52.8138C1.94574 53.5733 2.97587 54 4.05 54H49.95C51.0241 54 52.0543 53.5733 52.8138 52.8138C53.5733 52.0543 54 51.0241 54 49.95V4.05C54 2.97587 53.5733 1.94574 52.8138 1.18622C52.0543 0.426695 51.0241 0 49.95 0ZM16.2 45.9H8.1V21.6H16.2V45.9ZM12.15 16.875C11.2217 16.8485 10.3218 16.549 9.56273 16.0139C8.80367 15.4789 8.21911 14.732 7.8821 13.8666C7.54508 13.0012 7.47056 12.0557 7.66784 11.1482C7.86511 10.2407 8.32544 9.41149 8.99131 8.76413C9.65717 8.11676 10.499 7.67997 11.4117 7.50833C12.3244 7.33669 13.2674 7.43781 14.123 7.79906C14.9785 8.16031 15.7086 8.76567 16.2221 9.5395C16.7356 10.3133 17.0096 11.2213 17.01 12.15C16.9887 13.4199 16.4655 14.6298 15.5548 15.5152C14.6442 16.4006 13.42 16.8895 12.15 16.875ZM45.9 45.9H37.8V33.102C37.8 29.268 36.18 27.891 34.074 27.891C33.4565 27.9321 32.8533 28.0948 32.2989 28.3697C31.7445 28.6447 31.2498 29.0264 30.8434 29.4931C30.437 29.9597 30.1267 30.5021 29.9305 31.089C29.7343 31.6759 29.656 32.2957 29.7 32.913C29.6866 33.0386 29.6866 33.1654 29.7 33.291V45.9H21.6V21.6H29.43V25.11C30.2198 23.9085 31.3049 22.9299 32.5814 22.2681C33.8579 21.6062 35.2829 21.2832 36.72 21.33C40.905 21.33 45.792 23.652 45.792 31.212L45.9 45.9Z" fill="#0A66C2"/>
</svg>
