<svg width="62" height="73" viewBox="0 0 62 73" fill="none" xmlns="http://www.w3.org/2000/svg">
<path fill-rule="evenodd" clip-rule="evenodd" d="M61.9655 7.66193C61.9884 7.54659 62 7.43055 62 7.31387C62 3.27453 48.1208 0 31 0C13.8792 0 0 3.27453 0 7.31387C0 7.43055 0.0115809 7.54659 0.0344863 7.66193H0V64.896V65.0119H0.00318281C0.243213 69.3825 14.029 72.9064 31 72.9064C47.971 72.9064 61.7568 69.3825 61.9968 65.0119H62V64.896V7.66193H61.9655Z" fill="#E0234E"/>
<path d="M14.96 52.192C14.112 52.192 13.3 52.128 12.524 52C11.756 51.88 11.088 51.736 10.52 51.568C9.952 51.392 9.552 51.232 9.32 51.088L9.872 47.608C10.168 47.776 10.568 47.948 11.072 48.124C11.576 48.3 12.132 48.452 12.74 48.58C13.356 48.7 13.976 48.76 14.6 48.76C15.44 48.76 16.048 48.64 16.424 48.4C16.808 48.16 17 47.776 17 47.248C17 46.864 16.884 46.54 16.652 46.276C16.42 46.004 16.036 45.728 15.5 45.448C14.972 45.168 14.264 44.816 13.376 44.392C12.624 44.032 11.932 43.608 11.3 43.12C10.668 42.624 10.16 42.032 9.776 41.344C9.392 40.648 9.2 39.824 9.2 38.872C9.2 38.056 9.352 37.344 9.656 36.736C9.968 36.12 10.404 35.608 10.964 35.2C11.532 34.792 12.204 34.488 12.98 34.288C13.756 34.08 14.616 33.976 15.56 33.976C16.904 33.976 18 34.1 18.848 34.348C19.696 34.596 20.28 34.816 20.6 35.008L19.904 38.344C19.544 38.064 18.988 37.808 18.236 37.576C17.492 37.336 16.728 37.216 15.944 37.216C15.384 37.216 14.924 37.28 14.564 37.408C14.204 37.528 13.936 37.7 13.76 37.924C13.584 38.148 13.496 38.408 13.496 38.704C13.496 39.064 13.6 39.384 13.808 39.664C14.024 39.936 14.356 40.208 14.804 40.48C15.26 40.744 15.848 41.04 16.568 41.368C17.336 41.712 18.02 42.064 18.62 42.424C19.228 42.784 19.744 43.176 20.168 43.6C20.592 44.024 20.912 44.508 21.128 45.052C21.352 45.588 21.464 46.208 21.464 46.912C21.464 47.976 21.212 48.904 20.708 49.696C20.212 50.488 19.48 51.104 18.512 51.544C17.544 51.976 16.36 52.192 14.96 52.192ZM36.6712 56.152C35.3512 56.152 34.2872 56.016 33.4792 55.744C32.6712 55.472 32.0352 55.024 31.5712 54.4C31.1072 53.784 30.7272 52.952 30.4312 51.904L32.5672 51.352H33.7912C33.9272 51.824 34.1192 52.172 34.3672 52.396C34.6152 52.628 34.9632 52.78 35.4112 52.852C35.8592 52.924 36.4472 52.96 37.1752 52.96C37.5112 52.96 37.8432 52.924 38.1712 52.852C38.4992 52.78 38.7832 52.704 39.0232 52.624V55.624C38.8072 55.728 38.5032 55.84 38.1112 55.96C37.7192 56.088 37.2392 56.152 36.6712 56.152ZM31.6312 52.192C29.8712 52.224 28.3672 51.868 27.1192 51.124C25.8792 50.372 24.9352 49.304 24.2872 47.92C23.6472 46.528 23.3432 44.888 23.3752 43C23.4152 40.888 23.8032 39.18 24.5392 37.876C25.2832 36.564 26.2952 35.6 27.5752 34.984C28.8552 34.36 30.3192 34.024 31.9672 33.976C33.6552 33.928 35.1032 34.272 36.3112 35.008C37.5192 35.736 38.4392 36.788 39.0712 38.164C39.7112 39.54 40.0152 41.168 39.9832 43.048C39.9432 45.16 39.5672 46.884 38.8552 48.22C38.1432 49.556 37.1672 50.544 35.9272 51.184C34.6872 51.824 33.2552 52.16 31.6312 52.192ZM31.7032 48.976C32.8552 48.976 33.7632 48.512 34.4272 47.584C35.0912 46.648 35.4232 45.096 35.4232 42.928C35.4232 41.808 35.2952 40.824 35.0392 39.976C34.7832 39.128 34.3952 38.468 33.8752 37.996C33.3552 37.524 32.6952 37.288 31.8952 37.288C31.1672 37.288 30.5032 37.468 29.9032 37.828C29.3032 38.188 28.8232 38.792 28.4632 39.64C28.1112 40.488 27.9352 41.648 27.9352 43.12C27.9352 44.256 28.0752 45.264 28.3552 46.144C28.6352 47.024 29.0512 47.716 29.6032 48.22C30.1632 48.724 30.8632 48.976 31.7032 48.976ZM43.0841 52V34.168H47.5001V48.4H53.5241V52H43.0841Z" fill="white"/>
</svg>
